<mxfile host="app.diagrams.net" modified="2021-06-25T08:27:41.924Z" agent="5.0 (Windows NT 10.0; Win64; x64) AppleWebKit/537.36 (KHTML, like Gecko) Chrome/91.0.4472.114 Safari/537.36" etag="ZpFDvY5i-8d3hzUf4RF-" version="14.8.1" type="github">
  <diagram id="C5RBs43oDa-KdzZeNtuy" name="Page-1">
    <mxGraphModel dx="1345" dy="576" grid="1" gridSize="10" guides="1" tooltips="1" connect="1" arrows="1" fold="1" page="1" pageScale="1" pageWidth="827" pageHeight="1169" math="0" shadow="0">
      <root>
        <mxCell id="WIyWlLk6GJQsqaUBKTNV-0" />
        <mxCell id="WIyWlLk6GJQsqaUBKTNV-1" parent="WIyWlLk6GJQsqaUBKTNV-0" />
        <mxCell id="WIyWlLk6GJQsqaUBKTNV-2" value="" style="rounded=0;html=1;jettySize=auto;orthogonalLoop=1;fontSize=11;endArrow=block;endFill=0;endSize=8;strokeWidth=1;shadow=0;labelBackgroundColor=none;edgeStyle=orthogonalEdgeStyle;" parent="WIyWlLk6GJQsqaUBKTNV-1" target="WIyWlLk6GJQsqaUBKTNV-6" edge="1">
          <mxGeometry relative="1" as="geometry">
            <mxPoint x="220" y="410" as="sourcePoint" />
          </mxGeometry>
        </mxCell>
        <mxCell id="Z78VOnooqBE1KKXO5WaL-58" value="" style="rounded=0;whiteSpace=wrap;html=1;" vertex="1" parent="WIyWlLk6GJQsqaUBKTNV-1">
          <mxGeometry x="42" y="680" width="360" height="590" as="geometry" />
        </mxCell>
        <mxCell id="WIyWlLk6GJQsqaUBKTNV-6" value="게임 컨텐츠&lt;br&gt;선택" style="rhombus;whiteSpace=wrap;html=1;shadow=0;fontFamily=Helvetica;fontSize=12;align=center;strokeWidth=1;spacing=6;spacingTop=-4;" parent="WIyWlLk6GJQsqaUBKTNV-1" vertex="1">
          <mxGeometry x="170" y="460" width="100" height="80" as="geometry" />
        </mxCell>
        <mxCell id="WIyWlLk6GJQsqaUBKTNV-11" value="문제 출제" style="rounded=1;whiteSpace=wrap;html=1;fontSize=12;glass=0;strokeWidth=1;shadow=0;" parent="WIyWlLk6GJQsqaUBKTNV-1" vertex="1">
          <mxGeometry x="182" y="710" width="120" height="40" as="geometry" />
        </mxCell>
        <mxCell id="WIyWlLk6GJQsqaUBKTNV-12" value="(대표 게임)&lt;br&gt;신서유기 인물퀴즈" style="rounded=1;whiteSpace=wrap;html=1;fontSize=12;glass=0;strokeWidth=1;shadow=0;" parent="WIyWlLk6GJQsqaUBKTNV-1" vertex="1">
          <mxGeometry x="161" y="590" width="120" height="40" as="geometry" />
        </mxCell>
        <mxCell id="Z78VOnooqBE1KKXO5WaL-0" value="GiGA Genie&lt;br&gt;플랫폼 실행" style="ellipse;whiteSpace=wrap;html=1;" vertex="1" parent="WIyWlLk6GJQsqaUBKTNV-1">
          <mxGeometry x="176" y="350" width="90" height="60" as="geometry" />
        </mxCell>
        <mxCell id="Z78VOnooqBE1KKXO5WaL-3" value="호출어 실행으로 Start !" style="text;html=1;strokeColor=none;fillColor=none;align=center;verticalAlign=middle;whiteSpace=wrap;rounded=0;" vertex="1" parent="WIyWlLk6GJQsqaUBKTNV-1">
          <mxGeometry x="281" y="370" width="130" height="20" as="geometry" />
        </mxCell>
        <mxCell id="Z78VOnooqBE1KKXO5WaL-42" value="" style="edgeStyle=orthogonalEdgeStyle;rounded=0;orthogonalLoop=1;jettySize=auto;html=1;" edge="1" parent="WIyWlLk6GJQsqaUBKTNV-1" source="Z78VOnooqBE1KKXO5WaL-5" target="Z78VOnooqBE1KKXO5WaL-10">
          <mxGeometry relative="1" as="geometry" />
        </mxCell>
        <mxCell id="Z78VOnooqBE1KKXO5WaL-5" value="시간 카운팅&lt;br&gt;시작" style="rounded=1;whiteSpace=wrap;html=1;fontSize=12;glass=0;strokeWidth=1;shadow=0;" vertex="1" parent="WIyWlLk6GJQsqaUBKTNV-1">
          <mxGeometry x="182" y="770" width="120" height="40" as="geometry" />
        </mxCell>
        <mxCell id="Z78VOnooqBE1KKXO5WaL-8" value="정답&lt;br&gt;제출 유형" style="rhombus;whiteSpace=wrap;html=1;shadow=0;fontFamily=Helvetica;fontSize=12;align=center;strokeWidth=1;spacing=6;spacingTop=-4;" vertex="1" parent="WIyWlLk6GJQsqaUBKTNV-1">
          <mxGeometry x="192" y="830" width="100" height="50" as="geometry" />
        </mxCell>
        <mxCell id="Z78VOnooqBE1KKXO5WaL-9" value="IoT 부저&lt;br&gt;누르기" style="ellipse;whiteSpace=wrap;html=1;aspect=fixed;" vertex="1" parent="WIyWlLk6GJQsqaUBKTNV-1">
          <mxGeometry x="172" y="900" width="60" height="60" as="geometry" />
        </mxCell>
        <mxCell id="Z78VOnooqBE1KKXO5WaL-10" value="손 들기&lt;br&gt;모션 인식" style="ellipse;whiteSpace=wrap;html=1;aspect=fixed;" vertex="1" parent="WIyWlLk6GJQsqaUBKTNV-1">
          <mxGeometry x="252" y="900" width="60" height="60" as="geometry" />
        </mxCell>
        <mxCell id="Z78VOnooqBE1KKXO5WaL-17" value="GiGA Genie STT" style="text;html=1;strokeColor=none;fillColor=none;align=center;verticalAlign=middle;whiteSpace=wrap;rounded=0;" vertex="1" parent="WIyWlLk6GJQsqaUBKTNV-1">
          <mxGeometry x="242" y="1034" width="130" height="20" as="geometry" />
        </mxCell>
        <mxCell id="Z78VOnooqBE1KKXO5WaL-20" value="" style="rounded=0;html=1;jettySize=auto;orthogonalLoop=1;fontSize=11;endArrow=block;endFill=0;endSize=8;strokeWidth=1;shadow=0;labelBackgroundColor=none;edgeStyle=orthogonalEdgeStyle;entryX=0.5;entryY=0;entryDx=0;entryDy=0;" edge="1" parent="WIyWlLk6GJQsqaUBKTNV-1" target="Z78VOnooqBE1KKXO5WaL-5">
          <mxGeometry relative="1" as="geometry">
            <mxPoint x="242" y="750" as="sourcePoint" />
            <mxPoint x="243" y="760" as="targetPoint" />
          </mxGeometry>
        </mxCell>
        <mxCell id="Z78VOnooqBE1KKXO5WaL-24" value="" style="rounded=0;html=1;jettySize=auto;orthogonalLoop=1;fontSize=11;endArrow=block;endFill=0;endSize=8;strokeWidth=1;shadow=0;labelBackgroundColor=none;edgeStyle=orthogonalEdgeStyle;entryX=0.5;entryY=0;entryDx=0;entryDy=0;" edge="1" parent="WIyWlLk6GJQsqaUBKTNV-1">
          <mxGeometry relative="1" as="geometry">
            <mxPoint x="241.71000000000004" y="810" as="sourcePoint" />
            <mxPoint x="241.71000000000004" y="830" as="targetPoint" />
          </mxGeometry>
        </mxCell>
        <mxCell id="Z78VOnooqBE1KKXO5WaL-25" value="대답 발화" style="rounded=1;whiteSpace=wrap;html=1;fontSize=12;glass=0;strokeWidth=1;shadow=0;" vertex="1" parent="WIyWlLk6GJQsqaUBKTNV-1">
          <mxGeometry x="183" y="994" width="120" height="40" as="geometry" />
        </mxCell>
        <mxCell id="Z78VOnooqBE1KKXO5WaL-31" value="" style="rounded=0;html=1;jettySize=auto;orthogonalLoop=1;fontSize=11;endArrow=block;endFill=0;endSize=8;strokeWidth=1;shadow=0;labelBackgroundColor=none;edgeStyle=orthogonalEdgeStyle;" edge="1" parent="WIyWlLk6GJQsqaUBKTNV-1">
          <mxGeometry relative="1" as="geometry">
            <mxPoint x="220.71" y="540" as="sourcePoint" />
            <mxPoint x="220.71" y="590" as="targetPoint" />
          </mxGeometry>
        </mxCell>
        <mxCell id="Z78VOnooqBE1KKXO5WaL-32" value="" style="rounded=0;html=1;jettySize=auto;orthogonalLoop=1;fontSize=11;endArrow=block;endFill=0;endSize=8;strokeWidth=1;shadow=0;labelBackgroundColor=none;edgeStyle=orthogonalEdgeStyle;exitX=0.5;exitY=1;exitDx=0;exitDy=0;" edge="1" parent="WIyWlLk6GJQsqaUBKTNV-1" source="Z78VOnooqBE1KKXO5WaL-9">
          <mxGeometry relative="1" as="geometry">
            <mxPoint x="241.71000000000004" y="930" as="sourcePoint" />
            <mxPoint x="242" y="990" as="targetPoint" />
            <Array as="points">
              <mxPoint x="202" y="970" />
              <mxPoint x="242" y="970" />
            </Array>
          </mxGeometry>
        </mxCell>
        <mxCell id="Z78VOnooqBE1KKXO5WaL-34" value="" style="endArrow=none;html=1;entryX=0.5;entryY=1;entryDx=0;entryDy=0;" edge="1" parent="WIyWlLk6GJQsqaUBKTNV-1" target="Z78VOnooqBE1KKXO5WaL-10">
          <mxGeometry width="50" height="50" relative="1" as="geometry">
            <mxPoint x="282" y="970" as="sourcePoint" />
            <mxPoint x="282" y="930" as="targetPoint" />
          </mxGeometry>
        </mxCell>
        <mxCell id="Z78VOnooqBE1KKXO5WaL-35" value="" style="endArrow=none;html=1;" edge="1" parent="WIyWlLk6GJQsqaUBKTNV-1">
          <mxGeometry width="50" height="50" relative="1" as="geometry">
            <mxPoint x="242" y="970" as="sourcePoint" />
            <mxPoint x="282" y="970" as="targetPoint" />
          </mxGeometry>
        </mxCell>
        <mxCell id="Z78VOnooqBE1KKXO5WaL-36" value="" style="endArrow=none;html=1;entryX=0.5;entryY=0;entryDx=0;entryDy=0;" edge="1" parent="WIyWlLk6GJQsqaUBKTNV-1" target="Z78VOnooqBE1KKXO5WaL-10">
          <mxGeometry width="50" height="50" relative="1" as="geometry">
            <mxPoint x="282" y="890" as="sourcePoint" />
            <mxPoint x="282" y="880" as="targetPoint" />
          </mxGeometry>
        </mxCell>
        <mxCell id="Z78VOnooqBE1KKXO5WaL-37" value="" style="endArrow=none;html=1;" edge="1" parent="WIyWlLk6GJQsqaUBKTNV-1">
          <mxGeometry width="50" height="50" relative="1" as="geometry">
            <mxPoint x="242" y="890" as="sourcePoint" />
            <mxPoint x="282" y="890" as="targetPoint" />
          </mxGeometry>
        </mxCell>
        <mxCell id="Z78VOnooqBE1KKXO5WaL-38" value="" style="endArrow=none;html=1;entryX=0.5;entryY=1;entryDx=0;entryDy=0;" edge="1" parent="WIyWlLk6GJQsqaUBKTNV-1">
          <mxGeometry width="50" height="50" relative="1" as="geometry">
            <mxPoint x="242.71000000000004" y="890" as="sourcePoint" />
            <mxPoint x="242.71000000000004" y="880" as="targetPoint" />
          </mxGeometry>
        </mxCell>
        <mxCell id="Z78VOnooqBE1KKXO5WaL-39" value="" style="endArrow=none;html=1;" edge="1" parent="WIyWlLk6GJQsqaUBKTNV-1">
          <mxGeometry width="50" height="50" relative="1" as="geometry">
            <mxPoint x="202" y="890" as="sourcePoint" />
            <mxPoint x="242" y="890" as="targetPoint" />
          </mxGeometry>
        </mxCell>
        <mxCell id="Z78VOnooqBE1KKXO5WaL-40" value="" style="endArrow=none;html=1;entryX=0.5;entryY=0;entryDx=0;entryDy=0;" edge="1" parent="WIyWlLk6GJQsqaUBKTNV-1">
          <mxGeometry width="50" height="50" relative="1" as="geometry">
            <mxPoint x="201.70999999999998" y="890" as="sourcePoint" />
            <mxPoint x="201.70999999999998" y="900" as="targetPoint" />
          </mxGeometry>
        </mxCell>
        <mxCell id="Z78VOnooqBE1KKXO5WaL-43" value="" style="rounded=0;html=1;jettySize=auto;orthogonalLoop=1;fontSize=11;endArrow=block;endFill=0;endSize=8;strokeWidth=1;shadow=0;labelBackgroundColor=none;edgeStyle=orthogonalEdgeStyle;entryX=0.5;entryY=0;entryDx=0;entryDy=0;" edge="1" parent="WIyWlLk6GJQsqaUBKTNV-1">
          <mxGeometry relative="1" as="geometry">
            <mxPoint x="242.60000000000002" y="1034" as="sourcePoint" />
            <mxPoint x="242.60000000000002" y="1054" as="targetPoint" />
          </mxGeometry>
        </mxCell>
        <mxCell id="Z78VOnooqBE1KKXO5WaL-44" value="Yes" style="edgeStyle=orthogonalEdgeStyle;rounded=0;html=1;jettySize=auto;orthogonalLoop=1;fontSize=11;endArrow=block;endFill=0;endSize=8;strokeWidth=1;shadow=0;labelBackgroundColor=none;startArrow=none;" edge="1" parent="WIyWlLk6GJQsqaUBKTNV-1" source="Z78VOnooqBE1KKXO5WaL-53" target="WIyWlLk6GJQsqaUBKTNV-11">
          <mxGeometry x="-1" y="-78" relative="1" as="geometry">
            <mxPoint x="-28" y="60" as="offset" />
            <mxPoint x="102" y="730" as="targetPoint" />
            <Array as="points">
              <mxPoint x="142" y="730" />
            </Array>
          </mxGeometry>
        </mxCell>
        <mxCell id="Z78VOnooqBE1KKXO5WaL-45" value="정답 판별" style="rhombus;whiteSpace=wrap;html=1;shadow=0;fontFamily=Helvetica;fontSize=12;align=center;strokeWidth=1;spacing=6;spacingTop=-4;" vertex="1" parent="WIyWlLk6GJQsqaUBKTNV-1">
          <mxGeometry x="192" y="1055" width="100" height="45" as="geometry" />
        </mxCell>
        <mxCell id="Z78VOnooqBE1KKXO5WaL-47" value="No" style="edgeStyle=orthogonalEdgeStyle;rounded=0;html=1;jettySize=auto;orthogonalLoop=1;fontSize=11;endArrow=block;endFill=0;endSize=8;strokeWidth=1;shadow=0;labelBackgroundColor=none;" edge="1" parent="WIyWlLk6GJQsqaUBKTNV-1">
          <mxGeometry x="0.2558" y="10" relative="1" as="geometry">
            <mxPoint as="offset" />
            <mxPoint x="242" y="1105" as="sourcePoint" />
            <mxPoint x="342" y="1240" as="targetPoint" />
            <Array as="points">
              <mxPoint x="242" y="1190" />
              <mxPoint x="342" y="1190" />
            </Array>
          </mxGeometry>
        </mxCell>
        <mxCell id="Z78VOnooqBE1KKXO5WaL-52" value="종료 또는 재실행" style="text;html=1;strokeColor=none;fillColor=none;align=center;verticalAlign=middle;whiteSpace=wrap;rounded=0;" vertex="1" parent="WIyWlLk6GJQsqaUBKTNV-1">
          <mxGeometry x="278" y="1244" width="130" height="20" as="geometry" />
        </mxCell>
        <mxCell id="Z78VOnooqBE1KKXO5WaL-53" value="문제 출제" style="rounded=1;whiteSpace=wrap;html=1;fontSize=12;glass=0;strokeWidth=1;shadow=0;" vertex="1" parent="WIyWlLk6GJQsqaUBKTNV-1">
          <mxGeometry x="82" y="1120" width="120" height="40" as="geometry" />
        </mxCell>
        <mxCell id="Z78VOnooqBE1KKXO5WaL-54" value="" style="edgeStyle=orthogonalEdgeStyle;rounded=0;html=1;jettySize=auto;orthogonalLoop=1;fontSize=11;endArrow=none;endFill=0;endSize=8;strokeWidth=1;shadow=0;labelBackgroundColor=none;" edge="1" parent="WIyWlLk6GJQsqaUBKTNV-1" source="Z78VOnooqBE1KKXO5WaL-45" target="Z78VOnooqBE1KKXO5WaL-53">
          <mxGeometry x="-0.6817" y="-15" relative="1" as="geometry">
            <mxPoint as="offset" />
            <mxPoint x="182" y="730" as="targetPoint" />
            <mxPoint x="242" y="1100" as="sourcePoint" />
            <Array as="points">
              <mxPoint x="242" y="1190" />
              <mxPoint x="142" y="1190" />
            </Array>
          </mxGeometry>
        </mxCell>
        <mxCell id="Z78VOnooqBE1KKXO5WaL-55" value="GiGA Genie TTS" style="text;html=1;strokeColor=none;fillColor=none;align=center;verticalAlign=middle;whiteSpace=wrap;rounded=0;" vertex="1" parent="WIyWlLk6GJQsqaUBKTNV-1">
          <mxGeometry x="32" y="1160" width="130" height="20" as="geometry" />
        </mxCell>
        <mxCell id="Z78VOnooqBE1KKXO5WaL-59" value="" style="rounded=0;html=1;jettySize=auto;orthogonalLoop=1;fontSize=11;endArrow=block;endFill=0;endSize=8;strokeWidth=1;shadow=0;labelBackgroundColor=none;edgeStyle=orthogonalEdgeStyle;" edge="1" parent="WIyWlLk6GJQsqaUBKTNV-1">
          <mxGeometry relative="1" as="geometry">
            <mxPoint x="220.71000000000004" y="629.9999999999999" as="sourcePoint" />
            <mxPoint x="220.71000000000004" y="680" as="targetPoint" />
          </mxGeometry>
        </mxCell>
        <mxCell id="Z78VOnooqBE1KKXO5WaL-60" value="문제 Pool 생성을 위한 데이터 수집 과정에서 AI 이미지 라벨링 활용" style="text;html=1;strokeColor=none;fillColor=none;align=center;verticalAlign=middle;whiteSpace=wrap;rounded=0;" vertex="1" parent="WIyWlLk6GJQsqaUBKTNV-1">
          <mxGeometry x="430" y="720" width="368" height="20" as="geometry" />
        </mxCell>
        <mxCell id="Z78VOnooqBE1KKXO5WaL-63" value="" style="endArrow=none;dashed=1;html=1;entryX=1;entryY=0.5;entryDx=0;entryDy=0;exitX=0;exitY=0.5;exitDx=0;exitDy=0;" edge="1" parent="WIyWlLk6GJQsqaUBKTNV-1" source="Z78VOnooqBE1KKXO5WaL-60" target="WIyWlLk6GJQsqaUBKTNV-11">
          <mxGeometry width="50" height="50" relative="1" as="geometry">
            <mxPoint x="130" y="770" as="sourcePoint" />
            <mxPoint x="180" y="720" as="targetPoint" />
          </mxGeometry>
        </mxCell>
      </root>
    </mxGraphModel>
  </diagram>
</mxfile>
